# xmcd
#
# Track frame offsets: 
#        150
#        7412
#        14065
#        28007
#        38715
#        50980
#        64195
#        84237
#        93090
#        101035
#        118475
#        132412
#        143500
#        156887
#        183940
#        198472
#        211972
#
# Disc length: 3067 seconds
#
# Revision: 0
# Processed by: cddbd v1.5.2PL0 Copyright (c) Steve Scherf et al.
# Submitted via: ExactAudioCopy v0.99pb5
#
DISCID=f60bf911
DTITLE=Stefan Grossman - Mel Bay's Complete Ragtime Book
DYEAR=1900
DGENRE=Blues
TTITLE0=Oh Papa
TTITLE1=Buck Dancer's Choice Shake Sugaree
TTITLE2=Shake Sugaree
TTITLE3=Katz Rag
TTITLE4=Buck Rag
TTITLE5=C Rag
TTITLE6=Make Believe Stunt
TTITLE7=Blake's Breakdown
TTITLE8=High Society
TTITLE9=Mabel's Dream
TTITLE10=Creole Belles-March And Two-Step
TTITLE11=At A Georgia Camp Meeting
TTITLE12=Maple Leaf Rag
TTITLE13=The Entertainer
TTITLE14=Grizzly Bear Rag
TTITLE15=Florida Rag
TTITLE16=Pineapple Rag
EXTD=
EXTT0=
EXTT1=
EXTT2=
EXTT3=
EXTT4=
EXTT5=
EXTT6=
EXTT7=
EXTT8=
EXTT9=
EXTT10=
EXTT11=
EXTT12=
EXTT13=
EXTT14=
EXTT15=
EXTT16=
PLAYORDER=
